<svg width="183" height="27" viewBox="0 0 183 27" fill="none" xmlns="http://www.w3.org/2000/svg">
<path d="M18.2679 5.44846L12.7931 -0.000244141L10.1304 2.64386L16.9325 9.41663C17.2875 9.76972 17.7636 9.96632 18.2639 9.96632C18.7642 9.96632 19.2402 9.76972 19.5953 9.41663L26.4014 2.64788L23.7427 0.00376816L18.2639 5.45248L18.2679 5.44846Z" fill="#FF7557"/>
<path d="M19.5995 17.5817C18.8653 16.8515 17.6751 16.8515 16.9408 17.5817L10.1387 24.3465L12.7974 26.9906L18.2681 21.5499L23.747 26.9946L26.4057 24.3465L19.5995 17.5817Z" fill="#FF7557"/>
<path d="M7.35889 5.40039L0.548689 12.1812C0.193655 12.5343 0 13.0077 0 13.5052C0 14.0028 0.19769 14.4762 0.552724 14.8293L7.35889 21.586L10.0176 18.9379L4.54283 13.5052L10.0217 8.04851L7.35889 5.4044V5.40039Z" fill="#FF7557"/>
<path d="M35.9794 14.8253C36.3344 14.4722 36.5321 13.9987 36.5321 13.5012C36.5321 13.0037 36.3344 12.5262 35.9834 12.1772L29.2096 5.42847L26.5468 8.07258L31.9933 13.4972L26.5186 18.9299L29.1773 21.578L35.9834 14.8213L35.9794 14.8253Z" fill="#FF7557"/>
<path d="M55.1554 19.2188C55.1554 20.2098 55.2805 21.1728 55.5266 22.1077H52.8356C52.6056 21.4536 52.4886 20.5268 52.4886 19.3271V17.9509C52.4886 16.7312 52.1739 15.8485 51.5445 15.3028C50.9151 14.7571 49.9953 14.4803 48.789 14.4803H44.3147V22.1117H41.5713V4.48962H50.0437C51.8713 4.48962 53.2753 4.91493 54.2517 5.76152C55.228 6.60812 55.7162 7.7757 55.7162 9.26025C55.7162 10.4278 55.3975 11.3988 54.756 12.1732C54.1185 12.9516 53.2834 13.4732 52.2506 13.738C53.243 14.055 53.9773 14.4843 54.4494 15.0219C54.9214 15.5596 55.1554 16.4062 55.1554 17.5537V19.2228V19.2188ZM52.1578 11.6957C52.6096 11.1821 52.8356 10.4318 52.8356 9.44482C52.8356 7.60718 51.8068 6.68837 49.7451 6.68837H44.3107V12.4621H49.85C50.9313 12.4621 51.7019 12.2053 52.1537 11.6917L52.1578 11.6957Z" fill="#E2E2F8"/>
<path d="M68.1706 18.1073H70.6195C70.4582 19.2749 69.8772 20.302 68.8766 21.1927C67.8721 22.0835 66.3228 22.5288 64.2289 22.5288C61.9736 22.5288 60.2872 21.8748 59.1656 20.5668C58.0441 19.2588 57.4873 17.5576 57.4873 15.4551C57.4873 14.1311 57.7374 12.9394 58.2337 11.8802C58.7299 10.8209 59.4844 9.98236 60.497 9.36446C61.5097 8.74657 62.7523 8.43762 64.2249 8.43762C65.5926 8.43762 66.7585 8.73453 67.7268 9.32434C68.6951 9.91816 69.4213 10.7246 69.9095 11.7478C70.3976 12.7709 70.6437 13.9305 70.6437 15.2184C70.6437 15.6598 70.6276 15.9968 70.5913 16.2255H60.0936C60.1985 17.7983 60.6181 18.9137 61.3443 19.5758C62.0705 20.2378 63.0589 20.5708 64.3015 20.5708C66.4317 20.5708 67.7187 19.7483 68.1625 18.1073H68.1706ZM61.4007 11.2864C60.7068 11.8802 60.2832 12.8792 60.1218 14.2916H68.0859C67.9608 11.6956 66.6819 10.3956 64.2491 10.3956C63.0428 10.3956 62.0906 10.6925 61.4007 11.2823V11.2864Z" fill="#E2E2F8"/>
<path d="M75.4528 3.56274V22.1076H72.79V3.56274H75.4528Z" fill="#E2E2F8"/>
<path d="M78.9347 21.4175C78.1439 20.7274 77.7485 19.7765 77.7485 18.5568C77.7485 17.4614 78.0632 16.5827 78.6926 15.9207C79.322 15.2586 80.3588 14.8052 81.7951 14.5565L85.1236 13.9988C85.7812 13.8945 86.2573 13.7259 86.5477 13.4972C86.8423 13.2685 86.9875 12.9235 86.9875 12.4621C86.9875 11.8081 86.7696 11.3105 86.3339 10.9655C85.8982 10.6204 85.1397 10.4479 84.0544 10.4479C82.9691 10.4479 82.1582 10.6605 81.6176 11.0818C81.077 11.5071 80.7704 12.1411 80.6977 12.9877H78.035C78.0511 11.5553 78.5756 10.4358 79.6084 9.62135C80.6372 8.81087 82.0856 8.40161 83.9495 8.40161C85.8135 8.40161 87.1045 8.77074 88.0405 9.51302C88.9725 10.2553 89.4405 11.2544 89.4405 12.5062V19.0784C89.4405 20.0493 89.4848 21.0564 89.5736 22.0996H87.1489C87.044 21.0564 86.9875 20.0614 86.9875 19.1064C86.6849 20.0614 86.1362 20.8558 85.3374 21.4897C84.5386 22.1237 83.4815 22.4447 82.1663 22.4447C80.851 22.4447 79.7214 22.0996 78.9306 21.4095L78.9347 21.4175ZM85.874 19.0743C86.6204 18.1836 86.9915 17.0481 86.9915 15.6719V14.8775C86.6728 15.1062 86.3258 15.2867 85.9506 15.4191C85.5754 15.5515 85.1316 15.6799 84.6193 15.8043L82.7795 16.2296C81.9444 16.4222 81.3392 16.695 80.968 17.0361C80.5969 17.3811 80.4073 17.8546 80.4073 18.4524C80.4073 19.0503 80.6171 19.5518 81.0326 19.8969C81.4482 20.2419 82.013 20.4144 82.723 20.4144C84.0706 20.4144 85.1195 19.9691 85.8659 19.0784L85.874 19.0743Z" fill="#E2E2F8"/>
<path d="M94.7217 21.6983C94.1448 21.4255 93.7413 21.0082 93.5114 20.4545C93.2814 19.8968 93.1644 19.1505 93.1644 18.2156V10.9052H90.6348V9.52899L93.4065 8.57406L94.4998 5.87378H95.8312V8.86696H100.096V10.9052H95.8312V19.9931H99.8294V22.1116H97.1908C96.1257 22.1116 95.3027 21.9752 94.7257 21.7023L94.7217 21.6983Z" fill="#E2E2F8"/>
<path d="M104.626 4.48962V6.87293H101.27V4.48962H104.626ZM104.279 8.86304V22.1077H101.616V8.86304H104.279Z" fill="#E2E2F8"/>
<path d="M109.444 21.606C108.415 20.9881 107.64 20.1455 107.124 19.0743C106.607 18.007 106.349 16.7993 106.349 15.4592C106.349 14.1191 106.607 12.9435 107.124 11.8842C107.64 10.825 108.411 9.98639 109.444 9.36849C110.472 8.7506 111.735 8.44165 113.228 8.44165C114.721 8.44165 115.979 8.7506 117.012 9.36849C118.041 9.98639 118.816 10.829 119.332 11.9003C119.848 12.9675 120.107 14.1552 120.107 15.4632C120.107 16.7712 119.848 17.9829 119.332 19.0542C118.816 20.1215 118.045 20.9721 117.012 21.598C115.983 22.2239 114.721 22.5369 113.228 22.5369C111.735 22.5369 110.476 22.2279 109.444 21.61V21.606ZM110.045 19.2588C110.71 20.0252 111.771 20.4104 113.228 20.4104C114.684 20.4104 115.745 20.0252 116.411 19.2588C117.077 18.4885 117.412 17.2326 117.412 15.4832C117.412 13.7339 117.077 12.478 116.411 11.7077C115.745 10.9373 114.684 10.5561 113.228 10.5561C111.771 10.5561 110.71 10.9413 110.045 11.7077C109.379 12.474 109.044 13.7339 109.044 15.4832C109.044 17.2326 109.379 18.4925 110.045 19.2588Z" fill="#E2E2F8"/>
<path d="M133.392 9.78978C134.147 10.6926 134.526 12.0407 134.526 13.8422V22.1076H131.863V14.0789C131.863 12.791 131.605 11.8922 131.092 11.3907C130.576 10.8892 129.85 10.6364 128.906 10.6364C127.554 10.6364 126.546 11.1058 125.868 12.0407C125.194 12.9756 124.855 14.4681 124.855 16.5184V22.1076H122.192V8.86294H124.855V11.832C125.779 9.57312 127.385 8.44165 129.676 8.44165C131.399 8.44165 132.638 8.89103 133.392 9.7938V9.78978Z" fill="#E2E2F8"/>
<path d="M137.79 21.4175C136.999 20.7274 136.604 19.7765 136.604 18.5568C136.604 17.4614 136.918 16.5827 137.548 15.9207C138.177 15.2586 139.214 14.8052 140.65 14.5565L143.979 13.9988C144.636 13.8945 145.112 13.7259 145.403 13.4972C145.697 13.2685 145.842 12.9235 145.842 12.4621C145.842 11.8081 145.625 11.3105 145.189 10.9655C144.753 10.6204 143.995 10.4479 142.909 10.4479C141.824 10.4479 141.013 10.6605 140.473 11.0818C139.932 11.5071 139.625 12.1411 139.553 12.9877H136.89C136.906 11.5553 137.431 10.4358 138.463 9.62135C139.492 8.81087 140.941 8.40161 142.805 8.40161C144.668 8.40161 145.964 8.77074 146.895 9.51302C147.827 10.2553 148.295 11.2544 148.295 12.5062V19.0784C148.295 20.0493 148.34 21.0564 148.429 22.0996H146.004C145.899 21.0564 145.842 20.0614 145.842 19.1064C145.54 20.0614 144.991 20.8558 144.192 21.4897C143.394 22.1237 142.337 22.4447 141.021 22.4447C139.706 22.4447 138.576 22.0996 137.786 21.4095L137.79 21.4175ZM144.729 19.0743C145.475 18.1836 145.847 17.0481 145.847 15.6719V14.8775C145.528 15.1062 145.181 15.2867 144.806 15.4191C144.434 15.5515 143.987 15.6799 143.474 15.8043L141.635 16.2296C140.799 16.4222 140.194 16.695 139.823 17.0361C139.452 17.3811 139.262 17.8546 139.262 18.4524C139.262 19.0503 139.472 19.5518 139.888 19.8969C140.303 20.2419 140.868 20.4144 141.578 20.4144C142.926 20.4144 143.975 19.9691 144.721 19.0784L144.729 19.0743Z" fill="#E2E2F8"/>
<path d="M153.581 3.56274V22.1076H150.918V3.56274H153.581Z" fill="#E2E2F8"/>
<path d="M168.093 17.2849H159.088L157.224 22.1077H155.517L162.392 4.48962H164.817L171.691 22.1077H169.961L168.097 17.2849H168.093ZM167.56 15.9086L163.59 5.73344L159.62 15.9086H167.56Z" fill="#E2E2F8"/>
<path d="M179.111 5.86975V20.7313H183V22.1075H173.543V20.7313H177.432V5.86975H173.543V4.49353H183V5.86975H179.111Z" fill="#E2E2F8"/>
</svg>
