<?xml version="1.0" encoding="iso-8859-1"?>
<!-- Uploaded to: SVG Repo, www.svgrepo.com, Generator: SVG Repo Mixer Tools -->
<!DOCTYPE svg PUBLIC "-//W3C//DTD SVG 1.1//EN" "http://www.w3.org/Graphics/SVG/1.1/DTD/svg11.dtd">
<svg fill="#000000" version="1.1" id="Capa_1" xmlns="http://www.w3.org/2000/svg" xmlns:xlink="http://www.w3.org/1999/xlink" 
	 width="800px" height="800px" viewBox="0 0 123.043 123.043"
	 xml:space="preserve">
<g>
	<g>
		<path d="M40.364,25.259L40.364,25.259c0.435,0.001,0.867-0.021,1.291-0.065C48.027,24.55,53,19.171,53,12.629
			C53,5.655,47.347,0,40.372,0S27.743,5.655,27.743,12.629S33.393,25.255,40.364,25.259z"/>
		<path d="M64.94,51.173c-0.021-0.54-0.062-1.068-0.117-1.587c-0.002-0.015-0.003-0.03-0.004-0.044
			C63.49,37.369,53.083,30.975,48.778,28.334c-0.21-0.129-0.431-0.221-0.649-0.314c-0.924-0.619-1.925-1.118-2.958-1.51
			c-0.009-0.003-0.018-0.006-0.026-0.011c-0.56-0.211-1.126-0.398-1.699-0.536l0.005,0.098l-3.076,3.098l-3.051-3.202
			c-0.01,0.002-0.021,0.003-0.031,0.005c-1.644,0.393-3.254,1.097-4.685,2.058c-0.22,0.094-0.439,0.186-0.649,0.313
			c-6.2,3.803-25.067,15.376-11.234,40.804c0.89,1.633,2.572,2.561,4.312,2.561c0.791,0,1.596-0.192,2.339-0.598
			c0.261-0.142,0.496-0.312,0.721-0.49l0.005,45.647c0,3.2,2.594,5.796,5.794,5.796c3.199-0.002,5.794-2.596,5.794-5.797
			l-0.006-40.293c0.23,0.012,0.46,0.029,0.69,0.029c0.045,0,0.09-0.006,0.135-0.006l-0.002,40.271c0,3.201,2.596,5.796,5.795,5.796
			c3.201,0,5.796-2.595,5.796-5.795l0.002-46.17c0.356,0.393,0.77,0.746,1.261,1.014c0.56,0.303,1.151,0.487,1.746,0.561
			c0.2,0.023,0.397,0.037,0.598,0.037c1.738,0,3.422-0.928,4.312-2.561c1.681-3.091,2.869-5.972,3.667-8.663
			c0.005-0.016,0.012-0.033,0.016-0.049c0.188-0.636,0.348-1.259,0.491-1.873c0.01-0.042,0.021-0.085,0.033-0.127
			c0.138-0.601,0.25-1.189,0.349-1.771c0.008-0.051,0.02-0.104,0.028-0.153c0.094-0.575,0.165-1.139,0.222-1.694
			c0.005-0.052,0.015-0.105,0.02-0.158c0.054-0.559,0.086-1.107,0.104-1.646c0.002-0.043,0.006-0.086,0.006-0.129
			c0.016-0.549,0.012-1.085-0.008-1.614C64.94,51.233,64.94,51.203,64.94,51.173z M27.446,60.488
			c-2.679-6.579-2.149-11.375,0-15.109V60.488z M40.401,54.155h-0.06l-3.045-4.168l3.045-20.359h0.06l3.047,20.359L40.401,54.155z
			 M53.297,60.449V45.407C55.431,49.128,55.955,53.906,53.297,60.449z"/>
		<path d="M104.652,107.538l-10.853-7.101l-0.026-29.248c0.305,0.291,0.637,0.559,1.023,0.77c0.744,0.404,1.546,0.596,2.34,0.596
			c1.737,0,3.422-0.927,4.31-2.561c13.833-25.426-5.034-37-11.235-40.803c-0.164-0.101-0.338-0.166-0.508-0.245
			c-1.385-0.909-2.933-1.576-4.511-1.963l-3.146,3.167l-3.051-3.202c-0.011,0.003-0.021,0.003-0.032,0.006
			c-1.505,0.36-2.981,0.982-4.319,1.821c-0.317,0.095-0.629,0.222-0.933,0.386c-7.907,4.271-15.606,2.099-18.171,0.671
			c-0.307-0.856-0.854-1.638-1.628-2.235c-1.433-1.102-3.271-1.263-4.831-0.621c0.282,0.16,0.575,0.311,0.84,0.485
			c0.254,0.11,0.479,0.213,0.697,0.346c3.41,2.092,10.25,6.29,14.035,13.636c1.454-0.037,2.946-0.173,4.467-0.438v24.834
			c0,1.333,0.263,2.576,0.721,3.718c-0.031,0.246-0.073,0.49-0.073,0.744l0.023,25.152c0.002,1.953,0.988,3.775,2.622,4.843
			l9.803,6.412l0.01,10.545c0.003,3.199,2.598,5.79,5.795,5.79c0.001,0,0.002,0,0.004,0c3.2-0.003,5.793-2.6,5.791-5.8l-0.003-2.949
			l4.496,2.94c0.979,0.641,2.079,0.947,3.168,0.947c1.89,0,3.741-0.924,4.854-2.625
			C108.083,112.881,107.331,109.289,104.652,107.538z M94.973,46.687c1.872,3.542,2.291,8.025,0,14.02V46.687z M81.376,92.312
			l-0.015-15.357c0.228,0.011,0.455,0.029,0.684,0.029c0.049,0,0.096-0.006,0.144-0.006l0.014,15.875L81.376,92.312z M82.077,55.147
			h-0.059l-3.046-4.168l3.046-20.359h0.059l3.046,20.359L82.077,55.147z"/>
		<circle cx="82.044" cy="13.622" r="12.629"/>
	</g>
</g>
</svg>